<?xml version="1.0" standalone="no"?>
<!DOCTYPE svg PUBLIC "-//W3C//DTD SVG 20010904//EN"
 "http://www.w3.org/TR/2001/REC-SVG-20010904/DTD/svg10.dtd">
<svg version="1.0" xmlns="http://www.w3.org/2000/svg"
 width="1111.000000pt" height="1280.000000pt" viewBox="0 0 1111.000000 1280.000000"
 preserveAspectRatio="xMidYMid meet">
<g transform="translate(0.000000,1280.000000) scale(0.100000,-0.100000)"
fill="#000000" stroke="none">
<path d="M3145 12786 c-22 -8 -69 -27 -105 -44 -36 -16 -92 -38 -125 -47 -33
-10 -73 -24 -90 -32 -52 -27 -125 -87 -145 -120 -14 -23 -30 -35 -62 -43 -31
-9 -58 -28 -98 -68 -58 -60 -217 -269 -312 -412 -32 -47 -100 -139 -153 -205
-52 -66 -110 -142 -129 -170 -19 -27 -88 -110 -153 -183 -188 -209 -216 -268
-257 -538 -51 -326 -67 -384 -177 -635 -65 -147 -138 -345 -161 -434 -15 -61
-1 -282 27 -415 30 -137 33 -265 9 -313 -9 -18 -40 -66 -69 -108 -29 -41 -74
-114 -99 -161 l-46 -85 5 -232 c8 -315 -11 -433 -111 -706 -24 -66 -44 -127
-44 -135 0 -16 -32 -110 -122 -355 -84 -228 -126 -362 -143 -450 -8 -44 -26
-117 -39 -162 -14 -45 -39 -167 -56 -270 -17 -103 -43 -240 -57 -303 -35 -155
-52 -343 -62 -660 -5 -165 -13 -276 -20 -295 -7 -16 -35 -76 -62 -131 -47 -97
-50 -109 -70 -265 -11 -90 -27 -191 -34 -224 -8 -33 -28 -121 -45 -195 -17
-74 -35 -168 -40 -208 -5 -40 -20 -139 -34 -220 -34 -197 -57 -415 -63 -593
-4 -117 -1 -172 16 -282 12 -75 21 -156 21 -181 0 -57 21 -155 59 -276 16 -52
50 -162 76 -245 25 -82 64 -188 85 -235 58 -129 109 -253 125 -308 23 -77 81
-217 135 -327 98 -199 104 -220 110 -402 l5 -162 38 -46 c39 -46 101 -85 136
-85 13 0 35 -23 66 -69 30 -45 59 -75 81 -86 50 -23 162 -31 210 -14 30 11
121 15 379 17 187 1 403 3 480 4 171 3 287 -15 505 -79 85 -25 170 -50 189
-55 19 -6 148 -32 285 -59 250 -48 361 -73 466 -103 30 -8 100 -20 155 -26
129 -14 443 -55 663 -86 225 -32 350 -41 742 -54 424 -14 579 -26 725 -55 303
-60 415 -74 835 -106 151 -11 327 -24 390 -29 396 -32 931 -16 1160 35 36 8
117 21 180 29 63 9 178 31 256 50 214 53 378 84 598 112 110 14 203 27 206 29
4 2 131 9 282 16 302 12 453 5 644 -32 131 -25 172 -40 391 -143 172 -82 243
-108 243 -91 0 4 -11 16 -25 27 -14 11 -25 30 -25 44 0 26 -60 100 -89 109
-10 3 -23 16 -29 29 -6 14 -44 49 -85 79 -102 76 -258 227 -327 317 -32 41
-86 107 -120 145 -34 39 -104 133 -155 210 l-93 140 5 140 6 139 43 67 c70
110 135 146 208 115 21 -9 72 -44 114 -79 106 -87 137 -107 187 -122 41 -13
44 -12 57 7 l14 22 56 -32 c60 -35 112 -42 122 -17 9 25 -26 50 -115 85 -240
92 -399 215 -597 460 -42 52 -97 123 -122 158 -137 192 -180 244 -354 427
-310 325 -477 488 -551 539 -38 27 -99 73 -135 102 -36 29 -110 87 -165 129
-55 42 -134 106 -176 143 -95 83 -174 128 -212 118 -39 -9 -34 -38 18 -105 77
-98 77 -146 1 -183 -33 -16 -43 -25 -35 -34 19 -23 106 -53 234 -79 153 -32
242 -70 339 -146 119 -92 129 -104 123 -147 -4 -24 -1 -44 8 -56 22 -30 18
-57 -19 -132 -51 -102 -95 -148 -181 -189 -50 -24 -84 -49 -106 -76 l-31 -39
-34 30 c-41 35 -31 34 -84 15 -41 -15 -80 -8 -80 15 0 13 -24 18 -155 30 -66
6 -198 25 -293 41 -95 16 -198 29 -230 29 -91 -1 -172 -46 -172 -96 l0 -24
153 0 c271 0 526 -37 747 -110 137 -45 366 -149 382 -174 4 -6 -7 -25 -27 -43
-39 -35 -38 -63 1 -63 13 0 59 10 101 23 106 30 322 30 463 0 181 -40 262 -82
330 -173 58 -77 120 -194 120 -225 0 -15 -15 -61 -34 -103 -18 -43 -39 -102
-46 -132 -34 -145 -105 -213 -356 -341 -74 -37 -146 -76 -162 -88 -15 -11 -75
-38 -133 -61 -57 -23 -110 -46 -116 -52 -18 -15 -16 -93 2 -108 24 -20 106 -7
174 29 33 17 81 34 106 37 41 6 47 4 80 -29 19 -19 35 -45 35 -56 0 -57 -56
-112 -163 -161 -206 -93 -733 -240 -862 -240 -20 0 -63 9 -97 21 -64 21 -139
22 -146 2 -2 -7 13 -22 32 -34 68 -40 42 -58 -84 -59 -41 0 -95 -5 -120 -11
-24 -5 -138 -26 -252 -45 -234 -38 -326 -42 -518 -18 -69 8 -262 19 -430 24
-223 6 -341 14 -440 29 -74 12 -187 28 -250 36 -63 9 -153 22 -200 30 -47 8
-153 21 -237 30 -143 15 -282 42 -321 64 -12 7 -17 22 -17 52 0 49 19 42 -190
74 -123 19 -356 90 -456 141 -75 37 -94 58 -150 161 -48 89 -84 109 -211 119
-97 7 -108 14 -112 69 -2 19 -11 44 -21 55 -38 42 -247 78 -273 48 -7 -9 -10
-23 -6 -31 6 -17 31 -27 134 -52 120 -30 128 -33 140 -71 24 -72 55 -95 168
-124 32 -8 42 -16 42 -31 0 -41 17 -56 73 -63 43 -6 58 -13 74 -34 28 -37 347
-193 393 -192 35 0 52 -44 28 -68 -7 -7 -13 -20 -13 -30 0 -12 -8 -16 -28 -15
-24 2 -26 -1 -21 -22 10 -42 -50 -59 -107 -30 -21 11 -99 19 -287 30 -455 26
-658 50 -869 105 -65 17 -195 44 -290 60 -188 32 -414 81 -623 136 -192 51
-500 153 -506 169 -11 27 18 55 112 107 129 71 178 118 123 118 -31 0 -241
-90 -441 -190 -195 -97 -288 -126 -385 -118 -42 4 -61 10 -74 26 -16 20 -26
22 -141 22 -67 0 -163 -6 -213 -12 -49 -7 -127 -13 -172 -13 -94 0 -110 9
-120 68 -5 32 -2 40 32 71 33 31 37 40 31 68 -3 18 -19 46 -35 63 -61 64 -65
99 -16 119 50 21 63 55 41 104 -16 34 -16 52 -7 163 6 68 16 155 21 192 19
127 139 467 166 467 19 0 18 -17 -10 -140 -20 -85 -22 -108 -12 -118 20 -21
34 5 57 105 35 150 59 215 106 291 45 73 45 73 82 67 40 -7 55 4 83 60 125
252 172 337 192 347 47 21 157 197 201 323 23 62 30 71 48 57 26 -22 119 204
157 383 18 80 19 230 2 246 -22 23 -30 -2 -52 -146 -25 -169 -90 -437 -107
-443 -10 -3 -13 22 -13 102 0 87 -3 106 -15 106 -16 0 -43 -86 -65 -199 -16
-90 -48 -171 -67 -171 -13 0 -14 10 -8 66 5 52 4 65 -6 62 -15 -5 -17 -9 -64
-113 -62 -139 -54 -130 -117 -133 -46 -2 -58 -7 -63 -22 -3 -11 -22 -38 -41
-62 -20 -23 -45 -60 -56 -82 -11 -23 -36 -66 -54 -96 -19 -31 -50 -96 -69
-144 -24 -62 -48 -103 -78 -135 -53 -57 -137 -182 -137 -205 0 -9 -7 -33 -16
-54 -25 -59 -72 -215 -88 -294 -15 -75 -26 -159 -47 -375 -7 -68 -16 -123 -21
-123 -20 0 -30 61 -27 175 5 225 3 271 -16 330 -22 72 -15 222 16 333 l20 73
-21 43 c-11 24 -30 52 -41 62 -21 19 -21 18 -44 -9 -13 -15 -38 -71 -55 -124
-17 -54 -36 -103 -42 -110 -12 -15 -37 -17 -56 -4 -13 8 -56 143 -93 290 -11
47 -33 110 -48 140 -16 31 -34 74 -41 96 -13 43 -48 106 -64 117 -17 12 -36
-4 -36 -32 0 -15 9 -69 20 -121 11 -52 20 -122 20 -156 0 -72 -14 -81 -63 -38
-22 19 -26 30 -21 50 5 19 -2 40 -29 83 -20 33 -37 78 -42 107 -4 28 -18 84
-31 125 -79 241 -99 521 -70 960 17 256 81 732 116 870 11 41 36 143 55 225
19 83 55 224 79 315 25 91 59 230 76 310 18 80 47 210 66 290 35 152 46 247
29 252 -5 1 -19 -24 -31 -57 -40 -113 -71 -68 -54 81 12 112 114 587 142 664
66 180 98 313 129 528 7 51 21 102 37 130 33 62 81 201 97 282 28 142 47 205
105 340 17 41 40 107 50 145 18 66 26 90 56 176 16 45 63 353 71 472 5 59 -7
75 -32 40 -14 -19 -35 -10 -35 15 0 9 7 26 15 36 8 11 15 38 15 60 0 23 9 55
19 72 16 26 28 33 68 39 26 4 56 11 66 16 21 12 22 35 2 43 -25 9 -17 26 15
33 21 4 30 11 28 22 -3 14 -19 22 -77 37 -11 4 -10 9 3 27 9 12 24 39 33 59
16 37 16 37 61 31 37 -5 47 -3 58 12 20 27 17 62 -6 78 -24 17 -51 77 -61 137
-4 25 -18 95 -30 157 -21 104 -21 119 -9 200 7 48 21 122 31 163 32 129 166
515 219 629 56 120 77 211 86 361 6 100 26 195 50 241 7 15 58 75 111 132 129
137 171 191 185 241 14 47 143 180 218 224 77 44 117 80 156 140 46 71 74 103
85 96 5 -2 4 -16 -1 -29 -5 -13 -6 -27 -1 -29 15 -10 50 24 105 103 57 81 110
131 139 131 26 0 20 -17 -23 -69 -22 -26 -40 -50 -40 -54 0 -18 47 -4 101 29
84 52 125 57 222 28 94 -28 111 -30 100 -10 -13 23 -226 176 -253 182 -14 3
-37 12 -52 20 -60 32 -138 4 -220 -78 -55 -55 -135 -190 -130 -221 4 -30 -17
-59 -39 -54 -14 4 -29 -8 -57 -43 -37 -48 -59 -66 -71 -55 -3 4 1 17 9 30 8
13 46 74 84 136 38 62 88 135 110 163 23 28 68 86 99 128 89 121 171 168 294
168 49 0 57 -4 98 -41 35 -32 55 -43 90 -47 45 -5 75 8 75 32 0 21 -151 81
-204 81 -58 0 -76 18 -61 62 13 38 62 59 162 73 98 13 129 4 119 -36 -8 -29 8
-37 103 -54 49 -9 67 -8 95 4 58 24 47 39 -50 65 -48 13 -94 46 -94 67 0 18
41 34 88 34 20 0 69 -12 107 -26 89 -33 164 -46 460 -84 294 -38 423 -61 583
-107 254 -72 346 -125 300 -172 -21 -20 18 -41 76 -41 62 0 107 -25 125 -69
18 -43 6 -79 -40 -123 -57 -55 -79 -57 -136 -15 -81 58 -278 176 -376 222
-123 60 -430 165 -482 165 -22 0 -103 18 -180 40 -141 41 -192 49 -180 29 12
-19 108 -55 424 -158 275 -91 337 -115 503 -198 160 -80 192 -100 202 -125 9
-21 31 -38 77 -61 70 -35 96 -74 68 -102 -12 -12 -20 -12 -58 5 -23 11 -56 31
-73 45 -18 15 -42 25 -61 25 -41 0 -147 -61 -204 -117 -24 -24 -50 -43 -57
-43 -14 0 -86 77 -86 92 0 4 -15 15 -32 24 -18 10 -54 35 -79 56 -26 22 -68
46 -95 54 -51 15 -114 19 -114 7 0 -5 31 -27 68 -50 37 -23 95 -64 128 -91 39
-32 65 -47 71 -41 14 14 59 -24 49 -40 -5 -7 -14 -10 -21 -7 -8 3 1 -27 21
-69 19 -41 34 -80 34 -87 0 -7 -11 -36 -24 -64 -27 -58 -54 -78 -166 -119 -89
-33 -107 -44 -88 -56 7 -5 23 -9 36 -9 52 0 8 -52 -85 -99 -42 -21 -73 -27
-73 -15 0 4 13 30 30 58 29 52 29 52 10 69 -11 9 -20 25 -20 35 0 10 -9 25
-20 35 -32 27 -22 53 23 59 l28 3 -31 55 c-17 30 -37 70 -46 89 -19 41 -126
146 -210 207 -104 74 -236 131 -264 114 -18 -11 66 -93 164 -159 88 -60 220
-181 242 -223 8 -15 14 -40 14 -56 0 -16 7 -35 15 -42 51 -43 -21 -182 -154
-295 -60 -51 -75 -56 -69 -20 3 14 1 25 -5 25 -6 0 -49 -39 -96 -88 -47 -48
-119 -114 -160 -147 -80 -65 -105 -94 -83 -102 22 -8 13 -31 -18 -42 -38 -13
-52 -8 -115 39 -74 55 -117 74 -285 129 -155 51 -217 83 -240 126 -11 21 -10
28 19 64 38 48 141 123 217 158 46 21 60 23 80 14 14 -6 37 -11 51 -11 32 0
127 -54 148 -83 8 -12 15 -31 15 -42 0 -12 6 -30 14 -40 13 -18 14 -17 30 13
9 17 16 47 16 67 0 74 58 135 185 196 87 41 82 38 65 49 -24 16 -66 12 -175
-17 -97 -25 -106 -26 -156 -12 -28 8 -57 21 -62 30 -8 12 -5 51 8 133 13 88
15 120 6 129 -7 7 -14 7 -19 2 -20 -22 -52 -116 -62 -180 -6 -38 -14 -74 -18
-81 -11 -20 -174 -119 -331 -200 -109 -57 -150 -74 -169 -69 -67 17 -290 0
-270 -20 2 -3 44 -12 92 -20 48 -9 104 -24 125 -35 94 -47 307 -320 364 -465
25 -62 26 -200 3 -390 -18 -146 -20 -232 -7 -289 8 -31 1 -82 -30 -244 -21
-113 -41 -213 -44 -222 -3 -9 -50 -59 -106 -109 -55 -51 -109 -111 -120 -132
-11 -22 -30 -44 -42 -48 -12 -5 -56 -21 -97 -36 -41 -15 -97 -44 -125 -64 -87
-63 -114 -81 -124 -81 -5 0 -25 16 -45 36 -31 31 -40 35 -78 32 -35 -2 -43 -7
-43 -23 0 -14 19 -30 64 -55 71 -39 84 -56 49 -65 -45 -11 -64 -8 -147 24 -46
18 -95 31 -108 29 -22 -3 -26 -9 -28 -41 -2 -36 1 -39 58 -75 102 -64 180
-126 199 -157 9 -17 27 -80 39 -140 11 -61 41 -202 65 -315 61 -279 62 -287
68 -437 2 -72 9 -141 16 -152 13 -26 35 -27 46 -3 5 9 9 130 10 267 1 138 5
305 9 371 9 134 -4 249 -37 344 -11 30 -22 67 -25 83 -3 15 -11 27 -19 27 -7
0 -18 9 -24 19 -14 27 12 41 57 31 56 -13 83 -38 116 -108 30 -65 31 -71 29
-190 -2 -68 -7 -153 -13 -190 -10 -69 -31 -531 -31 -682 0 -379 25 -1004 52
-1305 6 -60 15 -201 20 -313 5 -111 15 -223 20 -249 6 -25 10 -98 8 -162 -2
-108 17 -400 27 -410 9 -9 17 8 34 76 10 37 21 78 25 91 6 17 3 22 -9 22 -10
0 -15 6 -13 18 2 9 11 16 19 14 12 -1 27 31 61 130 105 306 196 527 235 570
28 32 93 58 144 58 45 0 48 -2 79 -50 44 -68 186 -443 216 -567 30 -127 76
-255 111 -308 14 -22 50 -65 78 -95 77 -82 93 -110 134 -233 21 -61 55 -148
74 -192 88 -197 149 -528 133 -720 -13 -155 -113 -545 -156 -608 -40 -59 -116
-87 -148 -55 -18 18 -15 32 18 73 31 39 40 84 18 86 -48 5 -92 -37 -112 -105
-25 -84 -79 -143 -195 -211 -91 -54 -231 -160 -270 -206 -18 -22 -61 -58 -95
-81 -33 -23 -82 -60 -107 -82 -26 -23 -89 -65 -140 -94 -134 -75 -191 -121
-299 -240 -294 -326 -321 -342 -485 -291 -70 21 -95 16 -95 -21 0 -40 74 -76
184 -90 135 -17 159 -1 310 210 159 223 262 309 482 403 142 62 194 89 194
103 0 8 -4 14 -10 14 -20 0 -9 29 21 55 46 38 110 68 219 103 155 49 298 83
364 85 53 2 68 -2 104 -25 27 -18 55 -28 79 -28 38 0 38 1 87 95 27 52 70 121
96 154 27 32 69 90 94 128 26 41 65 83 93 103 26 19 89 72 138 118 145 134
154 142 164 142 5 0 52 29 104 64 85 58 178 107 432 227 93 44 206 80 325 104
46 10 96 22 110 27 14 6 63 14 110 19 47 5 110 14 140 20 77 15 1050 24 1166
11 103 -12 300 -54 389 -84 81 -26 234 -99 309 -147 34 -21 88 -50 121 -64 33
-13 110 -47 170 -75 118 -54 227 -97 500 -197 94 -34 211 -80 260 -102 98 -43
253 -97 325 -112 106 -23 155 -36 330 -87 216 -62 379 -117 504 -169 58 -25
118 -41 170 -47 77 -10 81 -9 98 12 10 12 18 33 18 46 0 36 -65 101 -134 133
-94 45 -463 162 -756 241 -146 39 -293 80 -328 90 -35 11 -134 29 -220 40
-183 24 -197 27 -213 46 -17 20 14 63 52 71 18 3 35 16 44 32 18 36 69 82 135
124 90 56 297 163 420 215 63 28 151 66 195 87 44 20 132 59 195 87 63 27 140
63 170 78 30 16 75 34 100 40 25 7 101 34 170 60 178 69 455 158 542 175 40 8
111 23 159 34 47 12 150 28 230 36 222 23 371 45 407 61 51 21 82 115 47 144
-12 10 -21 10 -41 1 -17 -7 -31 -8 -44 -1 -24 13 -204 13 -290 0 -37 -5 -107
-14 -158 -20 -151 -17 -358 -67 -496 -121 -71 -27 -183 -66 -250 -85 -328 -96
-398 -119 -544 -181 -209 -90 -671 -319 -770 -382 -43 -28 -82 -51 -86 -51 -4
0 -31 -19 -60 -43 -29 -23 -92 -65 -140 -92 -48 -28 -110 -65 -137 -83 -66
-44 -95 -48 -155 -24 -27 11 -69 27 -94 36 -25 9 -99 44 -165 78 -359 184
-505 249 -626 277 -178 42 -245 46 -934 46 l-660 0 -179 -43 c-279 -66 -545
-162 -640 -231 -74 -53 -285 -178 -431 -254 -86 -45 -166 -97 -235 -152 -58
-47 -113 -85 -122 -85 -14 0 -18 8 -18 34 0 18 -7 39 -16 47 -14 11 -14 14 4
28 17 14 22 39 33 176 19 216 17 443 -3 520 -9 33 -19 83 -23 110 -11 86 -44
182 -114 334 -199 428 -241 525 -271 616 -18 55 -48 129 -67 164 -19 35 -45
99 -59 143 -14 43 -38 106 -54 141 -17 34 -30 73 -30 86 0 14 -8 34 -18 45
-10 12 -24 53 -32 91 -7 39 -35 120 -62 180 -103 230 -131 325 -170 585 -5 35
-17 88 -27 115 -15 41 -16 63 -10 111 5 32 6 78 3 102 -4 23 -2 48 4 55 5 6
12 121 15 257 6 260 18 468 42 720 8 85 19 207 24 270 10 126 35 217 79 282
15 22 36 56 47 75 33 58 162 118 407 189 9 3 53 53 96 112 88 118 187 223 332
347 96 82 109 96 209 219 30 37 81 90 113 117 48 43 67 70 118 170 33 65 73
158 89 207 33 104 101 247 184 392 97 169 235 305 406 402 99 56 111 69 169
185 41 83 48 148 27 243 -22 95 -46 138 -95 170 -22 14 -74 52 -116 84 l-77
59 6 77 c3 43 13 97 21 120 18 51 7 130 -23 170 -10 14 -21 35 -25 47 -10 32
-93 104 -166 145 -77 43 -336 136 -509 184 -102 28 -154 36 -285 44 -335 21
-521 50 -672 104 -79 29 -119 31 -179 12z m-631 -709 c-29 -54 -44 -66 -44
-39 0 23 62 111 67 96 2 -6 -8 -32 -23 -57z m2076 -193 c0 -29 102 -156 149
-186 48 -30 174 -81 229 -93 28 -6 32 -4 32 14 0 24 -57 84 -100 106 -17 9
-30 23 -30 32 0 25 54 9 134 -41 55 -35 73 -42 87 -33 12 8 24 5 46 -11 47
-34 69 -148 38 -195 -8 -12 -22 -51 -31 -87 -22 -88 -39 -109 -110 -141 -124
-56 -255 -81 -223 -43 6 8 17 14 23 14 20 0 131 57 146 75 14 17 13 18 -15 12
-16 -4 -76 -14 -133 -22 -94 -14 -109 -14 -175 1 -58 14 -86 27 -144 71 -40
30 -73 60 -73 66 0 7 -17 26 -37 43 l-38 32 0 78 c1 69 5 90 39 165 20 48 47
96 59 107 50 47 127 69 127 36z m-1604 -431 c-10 -10 -19 5 -10 18 6 11 8 11
12 0 2 -7 1 -15 -2 -18z m1824 -358 c10 -12 10 -21 1 -41 -21 -47 -261 -304
-326 -350 -29 -20 -29 -22 -15 -48 13 -25 12 -33 -9 -89 -12 -34 -42 -121 -65
-192 -24 -72 -61 -162 -83 -200 -57 -97 -121 -175 -144 -175 -24 0 -24 2 3 77
22 62 20 90 -6 62 -7 -8 -37 -59 -66 -114 -28 -55 -71 -125 -94 -155 -23 -30
-49 -67 -59 -82 -9 -14 -45 -48 -79 -74 -35 -26 -109 -92 -165 -145 -86 -83
-117 -105 -196 -143 -108 -51 -288 -116 -322 -116 -13 0 -27 5 -30 10 -10 16
-55 12 -62 -6 -4 -10 7 -29 30 -51 l36 -36 128 37 c70 20 145 44 166 52 57 22
80 -1 32 -32 -25 -16 -316 -104 -345 -104 -8 0 -34 25 -58 56 -32 42 -48 55
-65 52 -41 -6 -26 -40 31 -72 28 -17 52 -36 52 -43 0 -7 -19 -17 -42 -23 -24
-6 -64 -17 -90 -25 -65 -21 -75 -19 -109 17 -16 18 -64 53 -107 78 l-77 46 1
50 c0 27 12 81 27 119 14 39 48 152 76 253 52 188 68 228 106 274 13 15 33 59
45 99 45 151 163 353 286 492 75 84 97 102 160 132 77 37 153 59 324 95 l106
22 69 -38 c39 -21 85 -49 104 -61 41 -28 65 -29 90 -4 16 16 26 18 58 10 21
-5 52 -9 70 -9 42 0 35 21 -15 52 -45 27 -52 36 -52 70 0 41 33 57 177 84 173
34 256 53 265 62 5 5 -60 9 -144 10 -158 3 -188 6 -188 23 0 17 101 57 185 74
44 9 141 19 215 24 74 4 140 9 146 10 6 0 17 -6 24 -14z m-2010 -970 c0 -8 -4
-15 -10 -15 -5 0 -10 7 -10 15 0 8 5 15 10 15 6 0 10 -7 10 -15z m-1530 -115
c0 -5 -4 -10 -10 -10 -5 0 -10 5 -10 10 0 6 5 10 10 10 6 0 10 -4 10 -10z
m1457 -1615 c7 -72 19 -166 27 -210 8 -44 17 -93 20 -110 2 -16 1 -214 -4
-440 -5 -279 -4 -414 3 -423 7 -9 4 -18 -11 -33 -20 -18 -22 -30 -22 -127 0
-115 -23 -335 -40 -392 -11 -32 -29 -147 -50 -314 -5 -38 -16 -99 -24 -135 -8
-36 -18 -93 -22 -126 -10 -88 -28 -129 -81 -190 -78 -92 -85 -80 -77 129 3 83
2 264 -3 401 -5 138 -5 329 -1 425 4 96 11 306 17 465 9 279 24 428 68 685 8
52 19 127 24 165 9 83 30 154 71 250 40 91 57 117 77 113 12 -3 18 -29 28
-133z m303 -2035 c0 -5 -4 -10 -10 -10 -5 0 -10 5 -10 10 0 6 5 10 10 10 6 0
10 -4 10 -10z m-222 -28 c3 -9 -2 -13 -14 -10 -9 1 -19 9 -22 16 -3 9 2 13 14
10 9 -1 19 -9 22 -16z m-1288 -3596 c0 -3 -4 -8 -10 -11 -5 -3 -10 -1 -10 4 0
6 5 11 10 11 6 0 10 -2 10 -4z m460 -2006 c0 -5 -4 -10 -10 -10 -5 0 -10 5
-10 10 0 6 5 10 10 10 6 0 10 -4 10 -10z m3130 -244 c0 -8 -7 -16 -15 -20 -8
-3 -15 -12 -15 -21 0 -8 -7 -15 -15 -15 -17 0 -20 16 -5 25 6 4 8 11 5 16 -9
14 4 29 26 29 10 0 19 -6 19 -14z m135 -94 c46 -11 105 -40 105 -52 0 -14 -24
-28 -62 -35 -50 -9 -85 0 -93 25 -3 11 -17 23 -31 26 -14 4 -24 13 -24 23 0
35 7 36 105 13z"/>
<path d="M1510 9463 c-53 -9 -80 -25 -80 -49 0 -32 25 -43 122 -53 90 -9 122
-21 151 -58 23 -28 46 -29 75 -3 l22 21 -20 39 c-43 84 -146 124 -270 103z"/>
<path d="M2340 5001 c0 -12 106 -24 122 -14 9 5 3 10 -17 14 -46 10 -105 10
-105 0z"/>
<path d="M2423 4914 c-8 -22 59 -89 81 -81 24 9 19 26 -18 63 -37 37 -54 42
-63 18z"/>
<path d="M2796 4084 c-10 -27 -7 -59 10 -82 19 -28 36 -28 69 1 l25 22 -17 37
c-15 31 -23 37 -49 38 -20 0 -34 -6 -38 -16z"/>
<path d="M3785 2551 c-48 -12 -92 -39 -140 -85 -44 -41 -55 -68 -35 -81 11 -7
202 28 278 50 91 27 101 77 22 109 -43 17 -76 19 -125 7z"/>
<path d="M825 2479 c-30 -27 -35 -37 -35 -76 0 -63 13 -83 56 -83 34 0 35 1
32 38 -3 35 -1 37 24 34 33 -3 54 28 38 57 -11 21 -58 61 -71 61 -5 0 -24 -14
-44 -31z"/>
<path d="M3817 2376 c-59 -16 -101 -46 -105 -74 -3 -17 5 -23 40 -32 49 -13
68 -32 68 -70 0 -37 -37 -68 -110 -91 -103 -32 -425 -89 -503 -89 -102 0 -199
-23 -292 -69 -44 -22 -102 -42 -129 -46 -65 -9 -161 -44 -319 -116 -70 -33
-169 -70 -220 -85 -146 -40 -211 -98 -140 -125 23 -9 41 -4 123 35 52 24 141
58 197 75 57 17 167 52 245 79 79 27 178 59 221 71 43 13 93 31 110 41 67 39
347 94 537 106 58 3 141 15 185 27 110 29 366 28 540 -2 175 -30 191 -30 187
-6 -6 29 -41 97 -66 123 -11 13 -43 33 -71 45 -27 12 -73 40 -101 63 -61 50
-156 115 -201 138 -38 19 -128 20 -196 2z"/>
<path d="M1797 1485 c-87 -33 -180 -90 -200 -122 -10 -18 -21 -33 -23 -33 -2
0 -23 14 -46 30 -62 45 -91 36 -68 -21 10 -23 10 -33 1 -42 -18 -18 -13 -65 7
-76 34 -18 86 26 108 92 4 9 18 20 33 23 34 7 230 100 254 120 41 34 -1 53
-66 29z"/>
<path d="M3714 1258 c-17 -27 73 -68 152 -68 49 0 88 24 64 40 -20 13 -141 40
-179 40 -16 0 -33 -5 -37 -12z"/>
<path d="M4900 447 c21 -19 67 -37 74 -29 4 3 -10 14 -30 24 -44 21 -64 23
-44 5z"/>
</g>
</svg>
